<?xml version="1.0" encoding="utf-8"?>
<!-- Generator: Adobe Illustrator 27.9.0, SVG Export Plug-In . SVG Version: 6.00 Build 0)  -->
<svg version="1.1" id="Layer_1" xmlns="http://www.w3.org/2000/svg" xmlns:xlink="http://www.w3.org/1999/xlink" x="0px" y="0px"
	 viewBox="0 0 1920 1920" style="enable-background:new 0 0 1920 1920;" xml:space="preserve">
<style type="text/css">
	.st0{fill:#FF6700;}
	.st1{fill:#004E98;}
</style>
<g>
	<path class="st0" d="M952.5,1920c-65.2-42.7-130.2-85.8-195.9-127.8c-9.1-5.8-21.8-8.7-32.7-8.2c-70.5,3.1-140.9,7.4-211.4,11.6
		c-23.4,1.4-38.8-8.7-49.2-29.6c-31.1-62.5-62.6-124.9-95.1-186.8c-5.3-10.1-15.1-19.8-25.2-25.1c-60.8-31.8-122-62.9-183.6-93
		c-23.9-11.7-33.8-28.5-32-55.1c4.7-70.4,8.3-140.9,11.4-211.4c0.4-9.1-2.7-19.8-7.7-27.5C93.3,1108.3,55.2,1049.7,16,991.8
		c-14.8-22.2-15.1-41.6,0-63.7c39.3-57.8,77.7-116.3,115.5-175c5.2-8.1,8.2-19.6,7.8-29.3c-3-68.6-6.4-137.3-11.5-205.7
		c-2.2-29.6,8.2-47.9,35.1-60.9c61.8-29.8,122.8-61.2,183.7-92.9c8.6-4.5,16.8-12.9,21.3-21.5c32.2-62,63.9-124.3,94.7-187
		c11.8-24,29-33.3,55.5-31.5c71,4.9,142.1,8.7,213.2,12.1c7.9,0.4,17.1-3,23.9-7.4c49.3-31.8,98.1-64.4,147.1-96.7
		c16.6-10.9,33.5-21.6,50.2-32.3c7.5,0,15,0,22.5,0c65.5,43.3,130.9,86.7,196.6,129.6c5.9,3.9,13.7,7.4,20.4,7.1
		c71.7-3.3,143.4-7.3,215.1-11.5c31.3-1.9,42.7,3.8,56.8,31.7c31.3,61.7,62.1,123.8,94.2,185.1c5,9.6,14.4,18.8,24,23.8
		c62.5,32.6,125.5,64.1,188.6,95.7c19.4,9.7,29.4,24.3,28.2,46.3c-4.1,71.1-8.6,142.1-11.8,213.2c-0.5,10.9,2.4,23.7,8.1,32.8
		c40.9,64.2,83,127.6,124.7,191.3c0,11.2,0,22.5,0,33.8c-2.7,3.2-5.8,6.1-8.1,9.5c-38.9,58.8-78.2,117.4-116.2,176.7
		c-6.2,9.6-9.9,22.9-9.5,34.3c2.8,69.2,6.6,138.4,11.3,207.6c1.7,25.8-7.6,42.3-30.9,53.8c-61.6,30.2-122.8,61.2-183.5,93.1
		c-10.6,5.6-20.9,15.7-26.5,26.3c-32.2,61.2-63.5,123-94,185.1c-11.5,23.4-28.7,32.1-54.2,30.3c-71.6-4.8-143.3-8.7-215-12.4
		c-6.3-0.3-13.7,1.7-19,5.2c-66.6,43.7-133,87.8-199.4,131.8C967.5,1920,960,1920,952.5,1920z M1279.8,1707.6
		C1279.8,1707.7,1279.8,1707.7,1279.8,1707.6c34.3,2,68.6,3.5,102.9,6.2c12.5,1,18.8-3,24.3-14.3c27.8-56.6,57.2-112.3,84.7-169
		c9.6-19.7,23-32.7,42.6-42.2c55.6-26.9,110.2-55.9,165.8-82.7c14.3-6.9,17.7-15.3,16.7-30.2c-4.3-64.8-8.4-129.7-10.4-194.6
		c-0.5-14.4,4.5-31.1,12.2-43.4c34.6-55,70.7-108.9,107.1-162.7c7.6-11.2,7-18.7-0.3-29.5c-35.6-52.8-70-106.4-105.7-159.1
		c-10.7-15.9-15.2-32-14-50.9c4-62.3,6.3-124.8,11.1-187.1c1.4-18.6-3.9-27.3-20.6-35.3c-56.8-27.2-113.1-55.6-168.6-85.4
		c-12.8-6.9-25-19.2-31.9-32c-30.3-56.6-59.1-114.1-87.1-171.9c-7-14.4-15.4-17.9-30.2-17c-64.8,4.3-129.7,8.4-194.6,10.5
		c-14.4,0.5-31.1-4.6-43.4-12.3c-55.5-34.9-109.9-71.5-164.3-108.1c-9.8-6.6-16.5-6.5-26.4,0.1C896,133,841.4,168.3,787.5,204.5
		c-14.7,9.9-29.7,14.4-47.4,13.3c-65.5-4.1-131-7.2-196.4-11.4c-12.3-0.8-18.7,2.5-24.3,14c-28.8,58.8-58,117.5-88.9,175.3
		c-6.8,12.8-19.2,25-32,31.9c-57.8,30.8-116.5,60-175.2,89c-10.5,5.2-14.4,10.9-13.6,22.7c4.1,64.2,7,128.5,11.3,192.7
		c1.4,20.3-3.1,37.5-14.6,54.5c-36.2,53-70.9,107.2-106.9,160.5c-6.7,9.9-6.4,16.7,0.2,26.5c34.2,50.7,66.7,102.6,101.7,152.8
		c16.1,23,21,46.4,18.8,73.8c-4.6,57.9-6.4,116-10.6,173.9c-1.2,16.6,3.3,25.3,18.9,32.7c57.4,27.5,114.3,55.9,170.5,85.9
		c12.8,6.8,25.1,19.1,31.9,31.9c30.6,57.2,59.5,115.3,88,173.6c6.3,12.9,13.6,16.3,27.2,15.4c64.8-4.3,129.7-8.5,194.6-10.5
		c15-0.5,32.3,4.6,45.1,12.7c54.5,34.2,108,69.9,161,106.2c12.6,8.6,20.9,7.7,32.9-0.5c52.7-35.8,105.6-71.3,159.6-105
		c13.3-8.3,31.1-12.8,47-13.2C1217.4,1702.5,1248.7,1705.9,1279.8,1707.6z"/>
	<path class="st1" d="M963.8,362.8c330.3,1.3,597.8,269.4,596.7,598.1c-1.1,329.9-270.3,598.3-598.2,596.7
		c-331.1-1.6-597-267.9-596.6-598.2C366.2,628.2,635.5,361.5,963.8,362.8z M1481,959.9c-0.2-284.9-233.3-517.7-518-517.4
		c-285.2,0.3-517.6,233-517.3,517.8c0.3,285.3,232.8,517.6,517.7,517.3C1248.6,1477.3,1481.2,1244.6,1481,959.9z"/>
	<path class="st0" d="M887.1,1055.5c79-74.6,154.8-146.1,230.6-217.7c18.2-17.1,36.2-34.5,54.6-51.3c20.8-19.1,45.1-20,61.6-2.9
		c16.8,17.3,14.8,41-6.4,61c-102,96.5-204.2,192.9-306.6,289.1c-23.1,21.7-44.8,21.1-67-1.4c-52.1-53-103.7-106.4-155.6-159.6
		c-12.5-12.8-21.9-28.4-13.2-45.3c5.7-10.9,17.7-21.1,29.2-25.6c17-6.7,30.8,4.6,42.6,16.8c39.1,40.3,78.4,80.5,117.4,120.9
		C878.5,1043.9,882,1049.1,887.1,1055.5z"/>
</g>
</svg>
