<?xml version="1.0" encoding="utf-8"?>
<!-- Generator: Adobe Illustrator 27.9.0, SVG Export Plug-In . SVG Version: 6.00 Build 0)  -->
<svg version="1.1" id="Layer_1" xmlns="http://www.w3.org/2000/svg" xmlns:xlink="http://www.w3.org/1999/xlink" x="0px" y="0px"
	 viewBox="0 0 1920 1920" style="enable-background:new 0 0 1920 1920;" xml:space="preserve">
<style type="text/css">
	.st0{fill:#FF6700;}
	.st1{fill:#004E98;}
</style>
<g>
	<path class="st0" d="M1164.6,179c347.3,2.2,664.7,262.2,739.5,626.3c88.7,431.9-202.3,854.2-640.1,924.7
		c-237.9,38.3-449.9-24-635.1-178.1c-24.3-20.2-35.7-44.7-26.6-75.7c13.9-47.5,70.2-62.6,109.7-29.2
		c49.8,42.1,103.7,77.4,163.3,104.2c382.5,172.5,834.2-69.6,900.9-483.1c56.1-347.7-163.2-670.7-508.5-741.5
		c-204.1-41.9-388.2,8.2-549,141.3c-19.2,15.9-39.1,27.2-64.6,22.1c-26.9-5.4-45.4-21.7-52.3-48.3c-6.9-26.4,0.4-49.6,21.1-68
		c59.4-52.6,125.5-94.9,197.9-127.2C922,201.3,1028.4,179.4,1164.6,179z"/>
	<path class="st1" d="M1035.3,745.4c0-57.2-0.2-114.3,0.1-171.5c0.2-42.9,27.6-73.1,66.2-73.6c39.2-0.6,67.5,30.2,67.6,74.1
		c0.1,99,0.5,198-0.4,296.9c-0.2,18.4,5.8,30.9,18.5,43.4c80.8,79.9,160.8,160.6,241.4,240.7c16,15.9,26.9,33.4,25.9,57
		c-1.1,26.1-13.3,45.3-36.2,56.9c-23.7,12.1-47.3,9.9-69.2-5.3c-6.2-4.3-11.5-10.1-16.9-15.5c-89.8-89.7-179.2-179.6-269.4-268.9
		c-19.1-18.9-28.2-40-27.8-67C1035.9,856.9,1035.3,801.2,1035.3,745.4z"/>
	<path class="st0" d="M421.9,1027c-85.8,0-171.5,0.1-257.3,0c-44.5-0.1-75-27.1-75.3-66.4c-0.3-39.7,30-67.4,74.2-67.4
		c173.6-0.1,347.2-0.1,520.9,0c44.1,0,74.6,27.9,74.3,67.4c-0.3,39.4-30.7,66.4-75.3,66.4C596.2,1027.1,509.1,1027,421.9,1027z"/>
	<path class="st0" d="M333.4,714.3c-88.5,0-177.1,0.3-265.6-0.2c-31.4-0.2-56.3-19-64.8-46.7c-8.1-26.5,0.3-57.8,23.9-72.3
		c13.5-8.3,31-14,46.8-14.1c174.3-1,348.5-0.8,522.8-0.5c42.4,0.1,73,28.8,73.2,67c0.1,38.4-30.1,66.6-72.8,66.7
		C509.1,714.5,421.2,714.3,333.4,714.3z"/>
	<path class="st0" d="M513.5,1205.9c88.5,0,177.1-0.3,265.6,0.2c41,0.2,69.2,29.3,68.4,68.3c-0.8,38-29.9,64.9-72.1,65.3
		c-57.9,0.5-115.7,0.1-173.6,0.1c-116.4,0-232.8,0.2-349.3-0.1c-50.7-0.2-83.3-39.3-71.5-84.5c8-30.7,33-49.1,68.9-49.2
		C337.8,1205.7,425.7,1205.9,513.5,1205.9z"/>
</g>
</svg>
