<?xml version="1.0" encoding="utf-8"?>
<!-- Generator: Adobe Illustrator 27.9.0, SVG Export Plug-In . SVG Version: 6.00 Build 0)  -->
<svg version="1.1" id="Layer_1" xmlns="http://www.w3.org/2000/svg" xmlns:xlink="http://www.w3.org/1999/xlink" x="0px" y="0px"
	 viewBox="0 0 1920 1920" style="enable-background:new 0 0 1920 1920;" xml:space="preserve">
<g>
	<path d="M1028.5,1407.7c-31.1,30.4-61.7,60.2-92.1,90.1c-47.9,47-95.9,94-143.4,141.3c-13.6,13.5-27.7,23.4-47.3,14.1
		c-19-9-19.1-26.2-17.8-44.1c9.2-127.4,17.8-254.9,27.6-382.3c0.8-9.8,8.1-21.1,15.7-28.1c157.3-145.5,315-290.4,472.6-435.5
		c97.7-89.9,195.4-179.9,293.1-269.9c4.7-4.3,10.7-8.2,13.4-13.6c2.4-4.8,3.7-14.1,0.9-16.8c-3.9-3.9-12.1-5.1-18.1-4.5
		c-5.2,0.5-10,5.2-14.8,8.1c-338.5,206.9-676.9,413.8-1015.2,621c-13.4,8.2-24.6,9.7-39.6,4.5C327.4,1045.3,191,999.1,54.7,952.7
		C17.3,940,0.4,920.9,0,890.4c-0.4-29.9,15.6-49.5,51.2-63.1c465.3-178.2,930.7-356.4,1396-534.6c110.5-42.3,221-84.7,331.6-126.6
		c38.8-14.7,74.9-8.5,105.9,18.9c30.2,26.7,41.1,60.8,32.5,100.6c-9.6,43.9-18.9,87.8-28.6,131.7
		c-92.3,419.2-184.7,838.3-277.1,1257.5c-1.8,8.4-3.4,16.8-5.7,25c-17,59.7-82.3,81.1-133.4,42.9
		c-73.8-55.1-146.9-111.1-220.3-166.7c-68.3-51.7-136.6-103.4-204.9-155.1C1041.5,1416.7,1035.7,1412.8,1028.5,1407.7z"/>
</g>
</svg>
