<?xml version="1.0" encoding="utf-8"?>
<!-- Generator: Adobe Illustrator 27.9.0, SVG Export Plug-In . SVG Version: 6.00 Build 0)  -->
<svg version="1.1" id="Layer_1" xmlns="http://www.w3.org/2000/svg" xmlns:xlink="http://www.w3.org/1999/xlink" x="0px" y="0px"
	 viewBox="0 0 746.5 719.1" style="enable-background:new 0 0 746.5 719.1;" xml:space="preserve">
<g>
	<path d="M303.8,56.6l45.5,0.3c7.2,39.8,10.6,73,10.3,99.6c0,7-0.2,13.7-0.5,20c-6.8,92.5-60.5,138.8-160.9,138.8h-0.3
		c-102.7,0-153.9-50-153.8-150.1c0-28.4,5.3-58.3,16-89.6h44.2c-9.5,32.8-14.2,62.2-14.2,88.3c0,69.6,36.5,104.3,109.6,104.3
		c46.4,0,78.8-14.1,97-42.3c12.8-19.6,19.2-45.9,19.2-78.8C315.9,121.1,311.9,90.9,303.8,56.6z M163.9,36.3L200.2,0l36.6,36.6
		l-36.3,36.3L163.9,36.3z"/>
	<path d="M109.1,571.9c0.2,15.4-1.6,23.1-5.3,23.1h-5.5C32.8,595,0,556.7,0,479.9V315.2h44.7v164.2c0,44.9,18.1,67.3,54.4,67.3h4.7
		c3.5,0,5.3,6.7,5.3,20.2V571.9z"/>
	<path d="M179,557.4c-16.3,25.1-40.8,37.6-73.6,37.6h-5.5c-13.5,0-20.2-7.7-20.2-23.1v-5c0-13.5,6.7-20.2,20.2-20.2h4.2
		c28.6,0,46.1-14.5,52.6-43.6c5.8-26.1,14.3-46.5,25.5-61.2c17.2-22.8,40.1-34.3,68.9-34.4c29.6,0,53.7,11.7,72.3,35.2
		c16.3,20.3,24.4,44.7,24.2,73.1c0,25.2-6.3,45.2-18.9,59.9c-13.5,15.9-34.3,23.9-62.3,23.9C233.1,599.5,204,585.5,179,557.4z
		 M262.6,552.7c17.5,0,29.7-6.1,36.5-18.4c3-5.4,4.6-11.4,4.7-17.9c0.2-8.4-1.4-16.6-4.7-24.7c-5.8-13.8-13.6-23.7-23.4-29.7
		c-6.8-4-14.7-6-23.7-6c-28.6,0-45.3,19-50.2,57C219.6,539.5,239.8,552.7,262.6,552.7z"/>
	<path d="M578.5,546.7h20.2c3.5,0,5.3,7.5,5.3,22.6v2.6c0,15.4-1.8,23.1-5.3,23.1h-22.1c-12.6,81.7-73.1,123-181.4,124.1v-45.2
		c76-0.2,121.7-26.5,136.9-78.8l-18.4-0.3c-77.1,0-115.6-30-115.6-90.2c0-27.2,7.6-50.4,22.9-69.7c15.4-19.3,36.8-28.9,64.1-28.9
		c51,0,81.4,36.3,91.2,108.8C577.8,525.9,578.5,536.5,578.5,546.7z M533,546.4c-4-61.3-21-92-51-92c-12.6,0-22.5,4.7-29.7,14.2
		c-6.8,9.5-10.2,20.3-10.2,32.6c0,29.3,23.1,44.3,69.4,45.2H533z"/>
	<path d="M617.4,595h-22.6c-13.7,0-20.5-7.7-20.5-23.1v-5c0-13.5,6.8-20.2,20.5-20.2h22.6c47.5,0,71.2-22.3,71.2-67v-73.9h43.9v74.1
		C732.5,556.7,694.1,595,617.4,595z M594.1,315.1l36.3-36.3l36.3,36.6l-36.3,36.3L594.1,315.1z M674,315.1l36.3-36.3l36.3,36.6
		l-36.3,36.3L674,315.1z"/>
</g>
</svg>
