<?xml version="1.0" encoding="utf-8"?>
<!-- Generator: Adobe Illustrator 27.9.0, SVG Export Plug-In . SVG Version: 6.00 Build 0)  -->
<svg version="1.1" id="Layer_1" xmlns="http://www.w3.org/2000/svg" xmlns:xlink="http://www.w3.org/1999/xlink" x="0px" y="0px"
	 viewBox="0 0 1920 1920" style="enable-background:new 0 0 1920 1920;" xml:space="preserve">
<style type="text/css">
	.st0{fill:white;}
</style>
<g>
	<path class="st0" d="M825.6,919.6c0.8,68.8-9.5,136.2-23,203.4c-7.3,36.5-16.4,72.8-29.1,107.6c-16.3,44.7-32.7,89.5-55.3,131.7
		c-11.8,22.1-22.9,44.6-35.9,66.1c-15.3,25.2-30.8,50.2-46.7,75c-21.8,34-48,64.7-72.2,96.9c-14.7,19.5-32.8,36.3-49,54.7
		c-25.4,29-53.3,55.5-80.7,82.4c-15.8,15.5-28.6,16.1-44.6,3.6c-12.9-10-14.1-22.5-2.6-34.2c25.1-25.6,50.6-50.9,76-76.1
		c20.3-20.2,37.8-42.9,57.2-63.9c7-7.6,5.1-16.2-4-21.6c-33.9-20-68.2-39.3-101.9-59.7c-24.7-14.9-48.7-31.1-73-46.7
		c-1.6-1-3.1-2.2-4.8-3.2c-18.2-10.7-23.7-9.7-36.9,7.1c-25.3,32-53.4,61.3-81.2,91c-11.7,12.5-19.2,12.7-33.1,2.4
		c-19.5-14.5-21.1-33.6-3.3-49.8c39.8-36.3,74.6-77,108.7-118.5c15.9-19.4,32.6-38.1,46.2-59.2c31.5-48.9,61.5-98.4,82.6-153
		c26.6-68.5,41.8-139,46.3-212.4c3.5-57.1-2.4-113.8-4.1-170.6c-0.4-12.8,2.2-16.2,15-15.4c13.7,0.9,27,4.3,40,8.6
		c13,4.3,26.5,6.8,40.2,8s26.9,5,40.4,7.3c57.3,9.6,114.2,22.2,172.2,27.7c6.3,0.6,12.5,2.5,18.8,3c25.4,1.8,33.8,18.2,36,40.3
		c1.3,13.3,1.3,26.7,1.7,40C825.8,901.1,825.6,910.4,825.6,919.6z M565.6,1496.8c10.9-1,16.4-8.7,21.7-15.5
		c13.6-17.5,24.5-37,36.9-55.4c19.6-29,34.5-60.7,53-90.3c7.4-11.8,2.9-22.2-10.3-27.1c-7.8-2.9-15.4-6-23.2-8.8
		c-33.3-11.8-65.8-25.4-97.9-40.1c-28.6-13.1-56.6-27.5-84.9-41.3c-7.1-3.4-13-2.6-17.1,4.7c-3.4,6.1-6.6,12.3-9.7,18.5
		c-9.7,19.3-19.7,38.3-31,56.7c-13.5,21.9-27.7,43.2-42.7,64.1c-8.7,12.1-6.6,21.1,5.9,28.8c10.8,6.7,21.9,12.9,32.8,19.3
		c16.1,9.6,33.2,17.6,49.2,27.3c35.1,21.3,72.1,38.9,109,56.5C560.1,1495.5,563.3,1496,565.6,1496.8z M754,1102.6
		c0.2-16.5-3.5-20.5-19.8-24.2c-43.9-9.7-86-24.9-127.8-40.8c-24-9.2-48-18.6-72.3-27c-17.4-6-22.7-1.9-23.5,16.4
		c-0.3,6.4-1,12.7-2.6,18.9c-8.3,33-16.7,65.9-30.7,97c-6.5,14.5-3.1,22.2,11.4,28.9c12.4,5.7,25.2,10.5,37.4,16.7
		c23,11.7,47.4,19.8,71.5,28.9c29.7,11.2,59.5,22.1,89.8,31.8c19.5,6.2,24.2,3.4,31.8-15.6c12.2-30.5,19-62.6,28-94.1
		C750.7,1126.8,753.3,1113.6,754,1102.6z M768.9,948.2c-0.1,0-0.1,0-0.2,0c0-15.3,0.2-30.5,0-45.8c-0.4-26.7-8.6-37-34.9-41.2
		c-37-5.9-74.5-8.2-111.4-15.7c-29-5.9-58.2-10.3-87-17.3c-17.4-4.3-21.9,0.7-17.8,17.8c2.1,8.9,4.2,18,5.3,27.1
		c2.3,18.7,0.5,37.5,1.1,56.2c0.6,16.6,6.2,23.3,22.2,27.7c6.8,1.8,13.8,2.9,20.2,5.5c36.4,14.3,73.7,25.9,111.5,35.9
		c21.8,5.8,43.7,11.4,65.7,16.4c18.3,4.2,25-1.4,25.3-20C769.2,979.4,768.9,963.8,768.9,948.2z"/>
	<path class="st0" d="M731,392.5c0,0.3,0.1,0.6,0,1c-6,29.2,12.3,43.4,34,55.7c8.4,4.8,15.6,11.1,19.1,20.5
		c1.6,4.2,2.8,8.7-1.4,12.4c-4.2,3.6-7.9,1.2-12.3-0.3c-8-2.8-13.5-9.4-21-12.9c-4.6-2.2-9.1-3-13.5,0.1c-4.3,3.1-2.9,7.4-2.1,11.4
		c3.7,19.3,7.6,38.6,11.4,58c1.6,8.3,6,13.3,14.9,15.1c7.4,1.5,14.5,4.4,22,6c10.6,2.2,15.7,10.4,18.2,20.1
		c1.6,6.5-3.6,10.7-11.7,9.3c-5.6-1-10.9-3.6-16.5-4.5c-12-1.9-15.9,2.4-13.6,14c7.6,38.5,11.8,33.1,39.9,34.2
		c10.2,0.4,20.3,0.9,30.3,3.5c13.5,3.6,22.7,23.8,16.6,36.5c-2.5,5.3-7.2,5.7-12.1,5.6c-53.4-1.4-106.8-5-160-10
		c-96.2-9-189.3-31.2-279.9-64.5c-35.5-13.1-70.1-28.4-103.9-45.5c-25.2-12.8-50.2-26.1-74.3-40.9c-7-4.3-13.5-9.5-20.6-13.8
		c-13.3-8.1-22.6-5.6-30.1,7.8c-9.9,17.5-13.2,18.9-32.8,13.3c-4.6-1.3-9.3-2.4-13.7-4.2c-13.3-5.4-16.5-13.5-8.8-25.5
		c13.2-20.6,24.9-42,38-62.6c58.3-91.9,133.5-167.9,218.6-234.7c34.5-27.1,72-49.8,109.3-73c35.5-22.1,73.5-39.1,110.5-58
		c7.4-3.8,15-7,23.3-8.1c9.3-1.2,15.4,2.8,18.2,11.6c2.2,6.6,4.3,13.3,6.2,20.1c2.6,9.2,0.3,13.6-8.8,16.8
		c-4.2,1.5-8.6,2.3-12.8,3.9c-12.1,4.5-15.1,11.7-9.2,23.1c11.2,21.8,25.7,41.5,38.9,62c18.3,28.5,41.6,52.8,62.7,79
		c9.1,11.3,20.9,20.3,31.4,30.4c12.2,11.7,24.5,23.1,36.4,35.1c9.6,9.6,17.4,20.4,15.9,35.2c-0.5,4.8-0.4,10.1-5.7,12.2
		c-5.4,2.2-10-0.8-13.7-4.6c-6.6-6.9-12.4-14.5-20.8-19.5c-9.7-5.9-16.6-2.6-17.4,8.9c-0.2,3.5,0,7,0.1,10.5
		C730.5,386.2,730.8,389.3,731,392.5L731,392.5z M433.9,548.9c-1.7-31.7-4.4-63.4-8.6-94.9c-1.2-9.1-5.8-16.5-12-23.3
		c-7.1-7.7-16.4-12-24.5-17.9c-18.7-13.6-37.8-26.7-56.8-39.9c-3.5-2.4-7.3-4.5-11.5-2.1c-4.3,2.5-4.3,6.9-3.9,11
		c4.1,37.9,2,76.2,6.3,114.1c1.8,15.9,9.1,25.9,23,32c24.4,10.8,48.4,22.4,73.4,31.6C430,563.5,434.1,560.5,433.9,548.9z
		 M558.8,393.5c0-10.5-0.1-21,0-31.5c0.1-11.9-4.1-21.6-13.3-29.3c-22.7-18.9-48.2-34-71.1-52.8c-10.9-9-18.2-4.7-18.7,9.7
		c-0.5,14.3,0.2,28.6,0.3,42.9c0.1,19.7-1.4,39.5,0.6,59.2c1.2,11.3,5.2,19.8,16.4,25.8c23.2,12.4,45.5,26.6,69.2,38.1
		c5.1,2.5,9.7,7.3,15.7,3.8c6.4-3.7,5.3-10.7,4.6-16.4C560.5,426.6,560.7,410,558.8,393.5z M586.4,591.3c-0.1-0.9-0.1-2.9-0.5-4.7
		c-4.3-22.5-11.3-44.3-17.6-66.3c-2.9-10.1-9.8-16.9-19.7-20.6c-7.8-2.9-15-7-22.5-10.3c-18-8-34.5-19.1-52.4-27.2
		c-11.8-5.3-18.1-0.7-16.6,12.1c1,8.5,2.8,16.9,3.8,25.4c2.6,22.4,6.3,44.7,12,66.5c3.2,12.2,10.5,18.8,23.3,20.2
		c14.9,1.6,29.3,5.7,43.8,9.6c11.1,3,21.9,6.7,33.4,8C582.6,604.9,586.4,601.4,586.4,591.3z M700.4,362c-0.3,0-0.6,0-1,0
		c0-7-0.1-14,0-20.9c0.2-15.2-6.6-26.8-18.3-35.9c-9-7.1-17.1-15.2-25.5-22.9c-17.1-15.9-30.8-34.5-45.1-52.7
		c-2.5-3.2-5.5-6.7-10.4-4.8c-4.2,1.7-6.2,5.3-6.6,9.7c-2.5,27.3-2.5,54.6-1,81.9c0.5,8.2,4.3,14.7,11.6,19.7
		c12,8.2,24.1,16.5,35.3,25.9c13.6,11.5,27.5,22.5,41.5,33.6c10.5,8.3,18,5.4,19.4-7.9C701.1,379.2,700.4,370.5,700.4,362z
		 M592.1,396.8c1.4,19.3,1.9,40,3.3,60.6c1.2,17.6,9,29.4,24.1,37c21.9,11.1,44.8,19.8,67.5,28.9c12.4,5,18.3,0.7,17.5-12.8
		c-0.9-15.9-3.3-31.7-3.8-47.5c-0.7-18.9-10.2-31.4-25.9-40.3c-2.5-1.4-4.7-3.2-7.1-4.8c-19.3-12.8-38.6-25.7-58.1-38.2
		c-9.8-6.2-16.5-2.5-17.5,9.1C591.9,391.1,592.1,393.3,592.1,396.8z M565.5,178.3c-0.5-3-1-9.1-2.4-14.9c-2.9-11.9-9.9-15.8-21.2-11
		c-26.3,10.9-50.6,25.1-70.9,45.5c-9.9,9.9-9.9,21.9,0.9,30.6c23.7,19.2,44.7,41.6,70.6,58.1c4.1,2.7,7.9,7.5,13.6,4.4
		c5-2.8,5.8-8.3,5.7-13.4C561.1,245.4,563.9,213.4,565.5,178.3z M720.1,625.5c5.7,0.2,10.7-4.3,7.8-12.3c-3.8-10.1-5-21-9.5-30.9
		c-4.3-9.5-10.3-16.3-19.8-20.8c-23.9-11.2-49.6-17.5-73.5-28.8c-11.1-5.2-19.2,3.6-16.1,16c4.2,16.6,8.3,33.3,13,49.7
		c3.2,11.4,9.3,19.6,22.9,20.4C668.7,620.4,692.4,623,720.1,625.5z M425.9,257.8c-0.9-7.1,0.9-14.6-6-18.1
		c-6.4-3.2-11.4,1.9-16.6,4.7c-0.6,0.3-1.1,0.7-1.6,1c-22.8,14.9-40.9,35.2-61,53.1c-8.5,7.6-8.9,16.7-0.9,24.9
		c5.1,5.2,11,9.5,16.8,14c15,11.7,29.4,24.3,46.3,33.3c9.4,5,14.4,2.1,14.9-8.7c0.1-2.2,0-4.4-0.1-6.7c-0.6-27.4-0.1-54.7,5.8-81.6
		C424.7,268.2,425.2,262.5,425.9,257.8z M281,419.1c0-18.1,0.2-30.2-0.1-42.2c-0.2-8.2-2.8-9.6-10.1-5.8c-2,1-3.9,2.2-5.5,3.7
		c-18.9,16.9-31.9,38.5-46.9,58.6c-4.1,5.5-2.9,11.3,2.2,16.3c14.5,14,31.3,24.8,48.6,34.9c5.2,3,10.6,9.2,17.2,4.3
		c7.1-5.3,3.8-13.6,1.6-19.5C281,451.1,281.7,432.1,281,419.1z"/>
	<path class="st0" d="M872.1,1646.8c-0.9-47.8,16.1-96.4,44.3-140.3c25.4-39.5,59.5-70.9,103.2-90.6c48.3-21.9,98-24.7,149-11.9
		c16.5,4.1,24,0.7,30.4-15.8c5.7-14.8,10.4-30,16.5-44.5c6.1-14.6,11-29.7,17.3-44.1c6.5-14.9,11.3-30.1,16.9-45.2
		c11.2-30,21.9-60.2,33.1-90.1c8.8-23.6,15.3-47.8,22.9-71.7c9.1-28.6,16.8-57.8,24.2-86.9c8.1-32,16.5-64,22.7-96.5
		c5.6-29.7,9.5-59.5,14.9-89.2c1.2-6.5,3.2-12.9,5.1-19.3c3.5-11.8,11.1-19.2,22.8-23.7c39.6-15.3,81.1-23.8,121.9-35
		c33.7-9.3,67.7-17.5,101.7-26c16.8-4.2,22.4-1.2,30.6,14.3c7.9,14.9,16.3,29.6,12.2,47.7c-1.5,6.8-4.4,11.2-11.2,14
		c-17,7.1-35.1,8.9-53,11.4c-42.5,5.9-84.3,15.8-127,21.2c-23.3,2.9-41.2,16.8-46.4,42.9c-5.7,29.2-12.9,58.1-19.4,87.1
		c-0.3,1.6-0.4,3.2-1,4.7c-10.3,27.1-16.4,55.4-24.9,83c-8.6,27.9-18.8,55.1-28.4,82.5c-11.3,32.2-22.3,64.6-35.4,96
		c-13.3,31.7-25.3,63.9-39,95.5c-13.4,30.8-26,62-40,92.5c-7.1,15.4-5.5,21.1,9,32.3c24.3,18.9,44.5,41.4,61.2,67.3
		c21.1,32.6,33,68.3,36.9,107c3.9,38.1,1.1,75.7-7.3,112.8c-5,22.1-15.1,42.4-27,61.7c-18.8,30.7-41.2,58.2-71.1,78.6
		c-45.9,31.5-96.1,45.6-152.5,40c-31.9-3.1-61.1-12.3-88.1-28.4c-34-20.3-61.8-47.6-83.1-81.2
		C886.8,1755.8,870.3,1698.2,872.1,1646.8z M1107.8,1846.3c56.3,3,102.4-21.1,136.5-65.7c41.8-54.9,58-116.5,38.4-185.1
		c-10.9-38.1-31.3-70-60.1-96.7c-12.1-11.3-27.3-6.6-31.7,9.3c-9.4,33.2-26.7,63-40.5,94.3c-9.2,20.9-21.2,40.4-29.9,61.6
		c-3.3,8.1-7.1,16.4-13.8,22.6c-7.4,6.8-17.2,7.9-27.3,2.4c-8.7-4.7-9-12.2-7.2-20.6c1.6-7.1,2.5-14.6,6.6-20.8
		c10.2-15.4,16.1-33,24.6-49.4c18.3-35.2,32.9-72.2,51.7-107.2c1.9-3.6,2.9-7.8,3.5-11.8c1.7-11-2.6-17.3-13.6-18.8
		c-9.1-1.3-18.4-1.3-27.6-1.6c-25.8-0.9-51.3,2.2-74.5,13.4c-56.4,27.2-93.3,72.5-106.5,133.1c-13,59.6-6.9,117.9,31.8,168.9
		C1002.8,1819.8,1046.3,1848.9,1107.8,1846.3z"/>
	<path class="st0" d="M885.2,401.1c-2.5-37.8,9.7-71.4,32.2-100.5c23.7-30.6,55.2-48.9,94.9-51.6c73.1-5,125.4,29.8,166.9,86.1
		c30.6,41.6,44.6,88.1,41.5,139.5c-1.6,27.2-10.2,52.2-26.4,74.4c-4.3,5.9-8.2,12.1-12.8,17.8c-14.9,18.3-34.4,29.3-56.4,37.1
		c-21.9,7.8-43.9,14.1-67.1,8.6c-30.1-7.1-58.8-17.4-84.1-36.6c-42.7-32.4-70.1-74.6-84.4-125.7
		C885.1,434.2,885.3,417.5,885.2,401.1z"/>
	<path class="st0" d="M1658.3,1450.6c-32-0.3-60.7-2.8-87.7-15.1c-30.5-13.9-57.5-32.7-80.1-57.3c-27.7-30.2-47.9-65.1-58.5-104.7
		c-16.4-61-15.7-121.2,9.7-180.2c15.5-36.1,36.1-68.3,65.5-94.8c41.2-37.3,88.6-58.2,144.9-58.7c46.7-0.4,90.4,8.3,129.2,35.6
		c31.5,22.2,57.7,49.3,77.1,83c28.5,49.6,41.3,103,34.7,159.4c-7.9,68.5-33.4,130-87.1,176.2
		C1763,1430.9,1713.9,1453.7,1658.3,1450.6z M1477.8,1200.6c3.1,73.6,32.5,132.3,98.4,169.3c42.7,24,88.2,24.3,134.1,11.1
		c37.1-10.6,63.4-36.7,88.2-64.4c6.9-7.7,5.1-18.9-3.5-25.2c-4.3-3.1-9.4-5.3-14.3-7.5c-18.8-8.5-37.5-17.3-55.2-28
		c-21.1-12.7-42.1-24.2-68.6-20.8c-15.7,2-31.3-11-36.1-26.1c-5.8-18.3-0.1-37.1,14.7-47.7c11-7.8,23.1-9.5,35.2-3.6
		c16.9,8.3,34.1,9.5,51.9,4.1c3-0.9,6.2-1.1,9.4-1.7c27.8-5.1,55.6-10.6,84-12.3c12.9-0.8,16.2-6.8,11.8-18.7
		c-7.3-19.7-15.6-38.7-28.8-55.6c-31.5-40.3-69.8-68-122.6-72c-69.9-5.4-124,22.4-163.4,78.8
		C1488.1,1116,1477.5,1156.8,1477.8,1200.6z M1837,1216.6c-0.2-5.1-0.3-7.7-0.5-10.2c-1.4-15.9-4.9-18.5-20.6-16.5
		c-26.2,3.3-52.5,5.4-78.9,6.5c-4.7,0.2-9.5,0.6-14.2,1.5c-3.6,0.6-8.3,1.1-8.6,6c-0.3,4.6,3.9,6.1,7.2,7.9
		c24,12.9,50.9,19.7,73.5,35.8c5.8,4.1,13.3,6.3,20.3,8.2c10.2,2.8,16.2-1,18.2-11.3C1835.1,1234.3,1836,1224.1,1837,1216.6z"/>
	<path class="st0" d="M1286.7,354c1.1-63.1,23.5-111.5,69.2-149.1c32-26.4,70.8-33.1,109.9-38.9c7.3-1.1,14.5,1.6,21.6,3.2
		c25.4,5.8,51.3,10.2,74,24.1c47,28.9,85.7,65.4,101.3,120.2c7,24.5,15.6,49.2,14.3,75.6c-0.7,15.1-4.8,29.5-7.9,44
		c-3.8,18.1,2.3,35.4,4.8,52.9c6.7,46.9,7.6,94.5,15.8,141.2c2.8,16,9.6,29.5,18.7,42.3c21.4,30.3,42.9,60.6,62.2,92.3
		c12.5,20.6,27.4,39.7,41,59.6c7.3,10.7,14.3,21.7,20.9,32.9c9,15.3,19.7,29.5,29.9,44c3.5,5,6.4,10.3,7,16.4
		c1.2,11.6-2.8,20.7-10.3,23.5c-13.6,5-24,2.5-31.4-8c-18.2-25.9-33.4-54-53-79c-17.7-22.6-32.3-47.2-48.1-70.9
		c-21.3-31.9-42.7-63.8-64.3-95.6c-8.8-13-21.4-22.6-35.2-30.2c-27.3-15-54.4-30.5-82.1-44.7c-40.7-20.7-80.2-43.3-123.5-59.2
		c-45.5-16.7-80.2-48.7-105.3-91C1295.9,425.6,1288.9,388.4,1286.7,354z M1341.3,355.8c0.3,23.8,4.4,46.4,16.2,67.3
		c24.6,43.6,57.1,76.2,109.6,84.2c36.6,5.6,69.8,1,100.3-21.5c54-39.8,61.5-109.9,41.8-161.9c-14.6-38.5-42.4-66.9-79.2-85.6
		c-35.6-18-74.4-19-109.4-4.3C1368.6,255.8,1342.8,299.1,1341.3,355.8z M1647.9,587.3c0.5-23.5-7.3-45.6-11-68.4
		c-1.1-7-5.9-8.5-12.1-6.1c-6.9,2.7-12.7,7.2-17.7,12.6c-7.9,8.5-17.3,14.7-27.3,20.4c-8.8,5-19,5.1-28.1,8.9
		c-7.4,3.1-8.8,7.9-3.7,14c2,2.4,4.6,4.6,7.4,5.8c26.9,11.5,52.5,25.5,78.8,38.2c7.4,3.6,12.5,0.9,13.6-7.3
		C1648.6,599.4,1647.9,593.3,1647.9,587.3z"/>
	<path class="st0" d="M1447.4,1732.4c0.8-14,1.8-27.9,2.3-41.9c1-25.2-3.6-31.7-26.9-40.7c-29.7-11.4-52.6-30-60.9-61.9
		c-4.9-19-4-38.7,0.5-57.7c7.6-32.1,21.1-60.8,48.4-81.9c19.4-15,41.2-14.7,63.4-15.1c45.3-0.9,70.3,26.3,87.1,63.6
		c11.8,26.4,18.4,54.5,12.7,83.6c-5.1,26.6-17,49-43.9,60.5c-9.9,4.2-19,10.2-28.7,15.1c-9,4.5-10.1,11.9-9.6,20.8
		c1.3,25.1,2.4,50.2,3,75.3c0.4,15.1-1.2,16.5-16.3,18.7c-2.8,0.4-5.7,0.6-8.5,0.6c-18,0.1-21.2-3-21.6-20.8c-0.1-6,0-12.1,0-18.1
		C1447.9,1732.4,1447.7,1732.4,1447.4,1732.4z"/>
	<path class="st0" d="M309.8,704.8c13.5,0.4,21.5,10.4,30.1,18.4c30.8,28.7,52.5,64.1,66.5,103c15.2,42.1,17.8,86,6.5,130.5
		c-9,35.4-25.2,66.9-48.7,93.9c-29.7,34.1-68.1,54.4-113.2,61.4c-29,4.5-57.7,3.2-86.2-3.2c-12.4-2.8-23.8-7-31.4-18.1
		c17.5-22.9,34.6-46,48.7-71.1c10.4-1,20.9-0.4,31.4-0.2c38.7,0.8,70.6-14.2,93-45.4c31.4-43.7,28.6-112.9,3-149.1
		c-7.3-10.3-16.6-19.2-22.2-30.7c5.5-25.6,11.1-51.3,16.4-77C304.5,712.2,306.2,708.2,309.8,704.8z"/>
	<path class="st0" d="M86.6,1060.9c-15.5-3.3-23.1-15.9-32.3-26.8C10.1,981.4-5,920.4,1.4,852.6C4.1,823.6,9.9,796,25,771
		c42.3-69.9,101.8-108.7,186.2-101.6c10.7,0.9,21.8-0.7,31.5,5.7c-3.6,19.2-5,38.7-10.1,57.7c-2.7,9.9-6.7,19.8-5.8,30.4
		c-11.4-0.3-22.9-1.8-34.3-0.8c-19.8,1.7-38.7,6.7-55.2,18.7s-28.3,27.7-37.7,45.8c-21.2,40.8-15.2,105.5,14.3,140.7
		c6.9,8.3,13.9,16.4,17.4,26.8C113.1,1014.4,103.5,1040,86.6,1060.9z"/>
	<path class="st0" d="M929.2,10.5c29.5,1.1,62.8-0.6,95.3,7c3.4,0.8,6.9,1.4,10.1,2.7c13.1,5,25.2,3.3,37.6-3
		c31.9-16.2,66.5,0.1,75.1,34.9c8.6,34.9-23.6,72.1-57.9,62.2c-33-9.5-59.8,2-88,13.4C971,140,943,157,914.8,173.5
		c-0.3,0.2-0.5,0.3-0.8,0.5c-8.4,3.8-17.3,12.7-26.1,5.1c-10.3-8.8-13-22.2-12-35.8c0.3-4.8,4.2-6.8,8.5-7.9
		c15.7-4.1,31.1-8.9,45.6-16.5c14.6-7.6,31.6-3.5,46.5-9.4c18.7-7.3,37.8-12.7,57.4-16.7c3.7-0.7,9.2-2.2,8.7-7.3
		c-0.7-6.1-6.6-4.6-10.8-4.9c-9-0.6-17.9,1-26.3,3.7c-15.5,5-31.4,7.4-47.5,9.3c-24,2.8-47.2,9.8-70,18
		c-19.3,6.9-28.3,1.7-32.9-18.5c-5.4-23.5-6.6-47.9-16-70.5c-2.1-5-0.9-8.8,5.8-10.2c10.1-2.2,20.3-1.7,30.4-1.9
		C892,10.3,908.9,10.5,929.2,10.5z"/>
	<path class="st0" d="M651.8,1840.4c-16.2-0.8-32.4-1.6-48.6-2.5c-15-0.8-29.8-2.4-44-7.8c-15.6-5.9-32.4-6.7-48.3-11.3
		c-4.8-1.4-8.9-3.5-11.8-7.5c-4.6-6.6-1.4-14.7,6.7-15.3c54.6-3.7,108.5-14.2,163.4-15.5c21.7-0.5,37.6-9.4,47.8-30
		c18-36.4,37.7-72.1,57.1-107.8c8-14.8,16.9-29.1,25.7-43.4c2.1-3.5,5.1-6.5,8.1-9.3c3.8-3.5,8.7-4.5,13.3-2.1
		c5.2,2.7,5,7.8,3.5,12.6c-2.4,7.9-5.6,15.4-6.7,23.8c-4.7,36.6-17.3,70.8-31.7,104.5c-12,28.1-23.1,56.4-36.2,84.1
		c-9.3,19.7-23.6,29.2-44.8,29.3c-17.8,0.1-35.6,0-53.4,0C651.8,1841.6,651.8,1841,651.8,1840.4z"/>
	<path class="st0" d="M52.8,1283.3c-0.4-17.2,3-20,17.6-18.6c40.3,3.8,91.4-22.8,102.2-70.1c0.6-2.5,1.1-5,1.8-7.4
		c2.9-9.8,7.6-12.4,17.2-8.5c14.4,5.8,26.4,15,36.1,27.2c13.8,17.3,23.6,36.2,24.8,58.7c0.7,12.8-3.5,16.2-16,14.1
		c-32.5-5.5-61.7,0.3-84.5,25.6c-11.5,12.8-20.5,27.4-23.5,45c-2,11.7-10.7,15.8-22.2,10.3c-13.4-6.4-25.5-15.3-33.8-27.3
		C61.8,1316.9,51.8,1300.6,52.8,1283.3z"/>
	<path class="st0" d="M1801.6,551.6c0.9,24.8,2.4,49.6,2.5,74.4c0,23.1,8.8,42.1,24.5,58.2c24.3,24.8,44.3,53.1,65.6,80.3
		c5.1,6.5,10.7,12.5,16.1,18.7c3.1,3.6,6.5,7,8.5,11.4c1.7,3.8,1.9,7.4-1,10.7c-3.2,3.5-6.8,2.6-10.5,1
		c-13.4-5.6-23.5-16.2-35.6-23.8c-34.9-22-63.7-51.4-92.9-79.9c-17.2-16.9-25.4-38.6-23.3-63.3c1.5-17.1,2.3-34.4,6.1-51.2
		c7.8-34.8,8.8-70.7,17.3-105.4c1.7-6.8,3.1-13.7,4.8-20.4c1-4,3.4-7.2,7.9-6.9c4.9,0.4,6.9,4,7.5,8.5c0.3,2.2,0.4,4.5,0.3,6.7
		C1798.3,497.6,1801.2,524.6,1801.6,551.6z"/>
	<path class="st0" d="M1287,178.1c-44,2.5-63.5-33.3-62.7-65.1c0.8-31.6,30.5-61.9,62.8-60.5c37.9,1.7,63.1,26.6,63.8,66.8
		C1351.3,151.6,1325,179.5,1287,178.1z"/>
	<path class="st0" d="M226.8,763.3c-0.8-10.7,3.1-20.5,5.8-30.5c5.1-19,6.5-38.5,10.1-57.7c22.3,2.3,42.9,8.9,59.7,24.6
		c-8,5.2-4.7,13.5-6,20.6c-4.2,22.8-7.8,45.7-13.9,68c-16.2-9-31.9-19.1-50.6-22.6C230.1,765.4,228.5,764.1,226.8,763.3z"/>
	<path class="st0" d="M770.4,36.2c0.1-21.9,2-23.2,24-22.7c10.3,0.2,14.7,4.4,16.4,14.2c4.5,26.5,7,53.5,18.2,78.5
		c3.2,7.2,1.6,15.7,0.3,23.6c-1,6.1-6.1,8.3-11.4,10.2c-5.8,2-11.7,2.7-17.8,2.7c-5.5,0-9.5-2.4-10.5-7.8
		c-5.6-29.3-16.9-57.3-19.1-87.3C770.2,43.8,770.4,40,770.4,36.2z"/>
	<path class="st0" d="M86.6,1060.9c16.8-20.9,26.5-46.6,44.7-66.5c1.9,0.2,4-0.2,5.6,0.5c15.7,7,30.3,16,45.1,24.6
		c-14.1,25.1-31.2,48.2-48.7,71.1c-5.9,1.7-10.9,0.6-15.9-3.3c-5.9-4.6-12.6-8.3-18.9-12.6C93.4,1071.3,87.7,1068.1,86.6,1060.9z"/>
	<path class="st0" d="M67.3,1245c-7.8,0.1-11.9-5.1-8.9-12.7c9.8-24.3,26.3-42.7,51-52.5c10-4,20.5-6.9,30.4-11.1
		c4.5-1.9,9.3-3.4,13.5,0.5c4.4,4,2.1,8.6,0.6,13.3C140.8,1223.9,100.9,1242.5,67.3,1245z"/>
	<path class="st0" d="M155,1366.9c-4.4,0.5-8.4-0.2-10.8-4.3c-2.3-4-0.3-7.8,2.4-10.4c8.3-7.7,13.9-17.2,20.2-26.3
		c10.8-15.4,26.6-22,44.3-24.9c7.5-1.3,15.1-2.5,22.6-2.6c8-0.1,12.6,6.6,8,12.7c-10.6,14-18.6,30-33.7,40.7
		C188.9,1365.4,183.2,1361.9,155,1366.9z"/>
	<path class="st0" d="M863.1,201.6c-0.2,10.6-10.5,24.1-20.7,27.2c-8.5,2.6-13.8-2.3-16.9-8.7c-4.4-9.1-8.2-18.6-10.9-28.4
		c-4.2-15,6.9-29.7,22.4-31c3.7-0.3,7,0.6,9.7,3C851.4,167.6,863.2,195.3,863.1,201.6z"/>
	<path class="st0" d="M282.4,788.4c6.1-22.4,9.7-45.3,13.9-68c1.3-7.2-2-15.5,6-20.6c2.6,1.6,6.6,0.9,7.4,5.1
		c-3.6,3.4-5.2,7.4-6.2,12.3c-5.2,25.7-10.9,51.3-16.4,77C284.2,793.4,284.2,790.1,282.4,788.4z"/>
</g>
</svg>
